<svg xmlns="http://www.w3.org/2000/svg" viewBox="0 0 318.01 126.5"><title>wufoo-clouds</title><path d="M68.85,49.94H67.29c0-.23,0-.46,0-.7A14.19,14.19,0,0,0,50.85,35.14a21.2,21.2,0,1,0-39.37,14.8H9.15a17.9,17.9,0,0,0-2.62,35.6,15.42,15.42,0,0,0,29.19,8.81,10.67,10.67,0,0,0,15.69-8.59H68.85a17.91,17.91,0,0,0,0-35.82Z" transform="translate(8.75 -18.84)" fill="#ed8c87"/><path d="M291.35,92.11h-1.56c0-.23,0-.46,0-.7a14.19,14.19,0,0,0-16.47-14.11A21.2,21.2,0,1,0,234,92.11h-2.33a17.9,17.9,0,0,0-2.62,35.6,15.42,15.42,0,0,0,29.19,8.81,10.67,10.67,0,0,0,15.69-8.59h17.44a17.91,17.91,0,0,0,0-35.82Z" transform="translate(8.75 -18.84)" fill="#ed8c87"/></svg>